<svg width="24" height="24" viewBox="0 0 24 24" fill="none" xmlns="http://www.w3.org/2000/svg">
<path d="M12.3258 0.935016C12.2385 0.851568 12.1225 0.804993 12.0018 0.804993C11.881 0.804993 11.765 0.851568 11.6777 0.935016L0.890625 11.2399C0.844813 11.2837 0.808367 11.3364 0.783491 11.3947C0.758615 11.453 0.745826 11.5158 0.745898 11.5792L0.744141 21.2506C0.744141 21.7479 0.941685 22.2248 1.29332 22.5765C1.64495 22.9281 2.12186 23.1256 2.61914 23.1256H8.25C8.49864 23.1256 8.73709 23.0269 8.91291 22.851C9.08872 22.6752 9.1875 22.4368 9.1875 22.1881V14.2194C9.1875 14.0951 9.23688 13.9758 9.32479 13.8879C9.4127 13.8 9.53193 13.7506 9.65625 13.7506H14.3437C14.4681 13.7506 14.5873 13.8 14.6752 13.8879C14.7631 13.9758 14.8125 14.0951 14.8125 14.2194V22.1881C14.8125 22.4368 14.9113 22.6752 15.0871 22.851C15.2629 23.0269 15.5014 23.1256 15.75 23.1256H21.3785C21.8758 23.1256 22.3527 22.9281 22.7043 22.5765C23.056 22.2248 23.2535 21.7479 23.2535 21.2506V11.5792C23.2536 11.5158 23.2408 11.453 23.2159 11.3947C23.191 11.3364 23.1546 11.2837 23.1088 11.2399L12.3258 0.935016Z" fill="#7E868C"/>
</svg>
